<svg id="Layer_1" data-name="Layer 1" xmlns="http://www.w3.org/2000/svg" viewBox="0 0 205.76 113.6">
  <title>logo</title>
  <path d="M65.94,47.18C55.29,41.29,45.25,53,48.39,63.51,52,75.69,67.54,76,76.39,82.63c9.67,7.22,8.9,20.45-1.13,27.07A16.35,16.35,0,0,1,59.48,111c-6.15-2.74-12.4-10.32-10.68-17.39.91-3.75-4.87-5.35-5.79-1.59-2.87,11.82,7.77,23.82,19,26,10.3,2,20.6-3.75,25.13-13.06,5-10.27,1.37-21-7.7-27.49-5.87-4.2-12.83-5.83-19.17-9.06-3.14-1.59-5.72-4.08-6.37-7.66-.94-5.11,3.57-11.39,9-8.37,3.38,1.88,6.41-3.3,3-5.18Z" transform="translate(-10.56 -24.26)" style="fill: #fff"/>
  <path d="M82.11,69.69a181.54,181.54,0,0,0,9.64-20.45L86.27,50A132.38,132.38,0,0,1,94.8,70.13c1.21,3.65,7,2.09,5.79-1.59a141.1,141.1,0,0,0-9.14-21.62c-1.32-2.51-4.6-1.49-5.48.72a168.8,168.8,0,0,1-9,19c-1.87,3.39,3.31,6.42,5.18,3Z" transform="translate(-10.56 -24.26)" style="fill: #fff"/>
  <path d="M83.15,65.39A99.5,99.5,0,0,1,94.34,65c3.86.06,3.86-5.94,0-6a99.5,99.5,0,0,0-11.19.44c-3.81.37-3.84,6.37,0,6Z" transform="translate(-10.56 -24.26)" style="fill: #fff"/>
  <path d="M142.26,113.28a181.69,181.69,0,0,0,9.64-20.46l-5.48.72A132,132,0,0,1,155,113.72c1.2,3.65,7,2.09,5.78-1.59a142.05,142.05,0,0,0-9.13-21.62c-1.32-2.51-4.6-1.49-5.49.72a169.62,169.62,0,0,1-9,19c-1.86,3.38,3.32,6.41,5.19,3Z" transform="translate(-10.56 -24.26)" style="fill: #fff"/>
  <path d="M143.3,109a97,97,0,0,1,11.18-.44c3.86.06,3.87-5.94,0-6a97,97,0,0,0-11.18.44c-3.81.36-3.85,6.37,0,6Z" transform="translate(-10.56 -24.26)" style="fill: #fff"/>
  <path d="M114.76,112.25q-2.49-30.75-2.57-61.61l-1.49,2.59a21.76,21.76,0,0,1,12.18-1.51c3.67.62,9.42,2.79,9.12,7.55-.49,7.84-16.32,7.48-21.28,7.33-3.86-.12-3.86,5.88,0,6,9,.28,29.9-1.41,27.07-15.52-2.65-13.24-20.5-13.1-30.11-9a2.93,2.93,0,0,0-1.49,2.59q.09,30.84,2.57,61.61c.3,3.82,6.31,3.85,6,0Z" transform="translate(-10.56 -24.26)" style="fill: #fff"/>
  <path d="M117.47,70.34q2.69,21.1,5.64,42.17c.53,3.81,6.32,2.19,5.79-1.59q-2.85-20.28-5.43-40.58c-.49-3.78-6.49-3.83-6,0Z" transform="translate(-10.56 -24.26)" style="fill: #fff"/>
  <path d="M144.34,46.86a255.16,255.16,0,0,0,1.37,27.37c.4,3.8,6.4,3.84,6,0a255.16,255.16,0,0,1-1.37-27.37c0-3.86-6-3.86-6,0Z" transform="translate(-10.56 -24.26)" style="fill: #fff"/>
  <path d="M149.38,61.31h25.89c3.86,0,3.87-6,0-6H149.38c-3.86,0-3.87,6,0,6Z" transform="translate(-10.56 -24.26)" style="fill: #fff"/>
  <path d="M172.26,47.41q1.5,30.51,1.86,61c0,3.86,6,3.87,6,0q-.36-30.54-1.86-61c-.18-3.84-6.19-3.87-6,0Z" transform="translate(-10.56 -24.26)" style="fill: #fff"/>
  <path d="M159.52,30.26a50.8,50.8,0,0,1,0,101.6H67.36a50.8,50.8,0,0,1,0-101.6h92.16m0-6H67.36a56.8,56.8,0,0,0-56.8,56.8h0a56.8,56.8,0,0,0,56.8,56.8h92.16a56.8,56.8,0,0,0,56.8-56.8h0a56.8,56.8,0,0,0-56.8-56.8Z" transform="translate(-10.56 -24.26)" style="fill: #fff"/>
</svg>
